<svg xmlns="http://www.w3.org/2000/svg" width="140.672" height="58.052" viewBox="0 0 140.672 58.052">
  <g id="logo" transform="translate(-34 163.2)">
    <path id="Path_27" data-name="Path 27" d="M162.018-159.927l.118,3.273,3.155,2.721c5.048,4.338,7.256,6.271,9.544,8.242l2.09,1.893h3.155a8.587,8.587,0,0,0,3.155-.315c0-.315-17.668-16.169-20.428-18.378l-.907-.71Z" transform="translate(-77.46)" fill="#445dcb"/>
    <path id="Path_28" data-name="Path 28" d="M231.637-140.142c-5.324,1.775-7.769,5.009-7.375,9.78.355,4.417,4.141,7.414,10.49,8.4,6.586,1.025,7.73,1.341,8.873,2.445,1.183,1.223,1.341,2.248.473,3.9-.907,1.735-3.392,2.524-7.375,2.287a14.356,14.356,0,0,1-8.676-3.076,9.563,9.563,0,0,0-1.617-1.183,17.713,17.713,0,0,0-1.775,2.327L223-112.931l1.577,1.42c3.313,3,7.611,4.378,13.409,4.338,4.338-.039,7.375-.946,9.9-2.918,2.366-1.893,3.273-3.983,3.273-7.3,0-6.113-3.076-8.558-12.383-9.859-6.231-.868-8.124-2.011-7.809-4.772.237-2.248,4.535-3.786,8.676-3.116a15.683,15.683,0,0,1,5.837,2.366c.592.513.828.355,2.485-1.7l1.854-2.248-.868-.749a21.81,21.81,0,0,0-3.47-1.932c-2.327-1.1-3-1.223-7.1-1.341C234.792-140.813,233.372-140.694,231.637-140.142Z" transform="translate(-114.464 -13.593)" fill="#000000"/>
    <path id="Path_29" data-name="Path 29" d="M127.39-133.887c-6.783,5.876-7.138,6.113-8.794,6.113h-1.7l.118,9.11.118,9.11,1.1.946c1.025.868,1.42.946,5.64.946h4.5v-15.775H140.6v7.848c0,6.941.079,7.887.631,8.006a45.257,45.257,0,0,0,4.969-.079c6.152-.276,5.837.316,5.837-11.082v-9.031h-1.577c-1.459,0-2.051-.434-8.637-6.113-3.9-3.352-7.138-6.113-7.217-6.113S131.295-137.239,127.39-133.887Z" transform="translate(-50.207 -14.051)" fill="#000000"/>
    <path id="Path_30" data-name="Path 30" d="M34-123.089v15.972h6.7v-7.1c0-3.9.118-7.1.315-7.1.158,0,3.194,3.194,6.783,7.1l6.507,7.1h8.637l-1.183-1.3c-.67-.67-4.259-4.5-8.006-8.44l-6.823-7.217,7.02-7.375,7.02-7.414-4.141-.118-4.1-.118-3.747,4.062c-2.051,2.248-4.772,5.127-5.994,6.428L40.7-126.243v-12.817H34Z" transform="translate(0 -14.596)" fill="#000000"/>
    <path id="Path_31" data-name="Path 31" d="M312.251-136.949c-.513,1.144-3.707,8.282-7.1,15.814C301.761-113.563,299-107.253,299-107.1c0,.315,7.335.355,7.572.039.079-.118.592-1.262,1.144-2.563l.986-2.366,8.282-.118,8.321-.079,1.065,2.524,1.1,2.563,2.485.237a15.3,15.3,0,0,0,3.865-.039l1.341-.355-7.1-15.893L320.967-139h-7.809Zm7.651,12.107a52.243,52.243,0,0,1,2.248,5.837c-.079.079-2.485.079-5.285.039l-5.127-.118,2.563-6.034c1.42-3.313,2.682-5.916,2.879-5.718C317.338-130.679,318.561-127.958,319.9-124.842Z" transform="translate(-160.491 -14.656)" fill="#000000"/>
    <path id="Path_32" data-name="Path 32" d="M34-33.622c0,3.944.079,4.338.71,4.22.473-.079.71-.552.789-1.617.158-2.051,1.459-2.011,3.194.118a3.679,3.679,0,0,0,2.09,1.577c.789,0,.749-.118-.513-1.42l-1.341-1.38,1.1-.828a2.674,2.674,0,0,0,.158-4.18c-.749-.71-1.38-.868-3.549-.868H34Zm5.679-2.327c.749,1.183-.158,2.09-2.287,2.208l-1.814.118v-3.234l1.814.118C38.614-36.659,39.4-36.383,39.679-35.949Z" transform="translate(0 -75.825)" fill="#000000"/>
    <path id="Path_33" data-name="Path 33" d="M73-33.662v4.338h3.155c2.524,0,3.155-.118,3.155-.592s-.552-.592-2.6-.592H74.144l.118-1.3c.118-1.262.158-1.262,2.406-1.38,3.037-.158,2.839-1.025-.237-1.183-2.208-.118-2.248-.158-2.248-1.262v-1.183h2.563c2.011,0,2.563-.118,2.563-.592S78.679-38,76.155-38H73Z" transform="translate(-23.619 -75.825)" fill="#000000"/>
    <path id="Path_34" data-name="Path 34" d="M110-33.662c0,3.589.118,4.338.592,4.338s.592-.592.592-2.958c0-1.617.118-2.958.315-2.918a19.642,19.642,0,0,1,2.563,2.958c1.262,1.656,2.524,2.879,2.761,2.8.315-.079.473-1.42.473-4.259,0-3.549-.079-4.1-.67-4.22s-.71.276-.789,2.958l-.118,3.076-2.366-3.076c-1.3-1.656-2.563-3.037-2.839-3.037C110.118-38,110-36.935,110-33.662Z" transform="translate(-46.028 -75.825)" fill="#000000"/>
    <path id="Path_35" data-name="Path 35" d="M150.144-36.982C149.158-36,149-35.523,149-33.788s.158,2.208,1.183,3.234c1.144,1.1,1.38,1.183,3.431,1.025,1.7-.158,2.406-.394,2.958-1.1a4.979,4.979,0,0,0-.355-6.547A4.67,4.67,0,0,0,150.144-36.982Zm5.442.907a4.1,4.1,0,0,1-.039,4.614,3.572,3.572,0,0,1-4.575.039,4.507,4.507,0,0,1-.552-4.141c.355-.868,2.327-1.7,3.51-1.459A3.373,3.373,0,0,1,155.586-36.075Z" transform="translate(-69.647 -75.699)" fill="#000000"/>
    <path id="Path_36" data-name="Path 36" d="M189.249-37.369c.158.434.907,2.406,1.735,4.417,1.972,4.89,2.445,4.851,4.693-.513,1.932-4.614,1.893-4.535.986-4.535-.513,0-1.025.907-2.051,3.628-1.025,2.839-1.38,3.47-1.656,2.839-.158-.394-.828-2.011-1.42-3.51-.749-1.814-1.38-2.8-1.854-2.918C189.131-38.04,189.052-37.921,189.249-37.369Z" transform="translate(-93.964 -75.825)" fill="#000000"/>
    <path id="Path_37" data-name="Path 37" d="M229.965-34.95c-2.563,5.64-2.563,5.64-1.775,5.64a1.538,1.538,0,0,0,1.144-.986c.394-.907.67-.986,2.761-.986s2.366.079,2.761.986a1.554,1.554,0,0,0,1.1.986c.749,0,.789.158-1.5-4.969C232.331-39.051,231.858-39.13,229.965-34.95Zm2.721-.394a12.581,12.581,0,0,1,.828,1.972c.276.868.158.907-1.5.907h-1.775l.828-1.972a8.573,8.573,0,0,1,.947-1.972A3.13,3.13,0,0,1,232.686-35.344Z" transform="translate(-117.327 -75.838)" fill="#000000"/>
    <path id="Path_38" data-name="Path 38" d="M267-37.408c0,.394.434.592,1.38.592h1.38v3.747c0,3.47.039,3.747.789,3.747s.789-.276.789-3.747v-3.747h1.38c.947,0,1.38-.2,1.38-.592,0-.473-.67-.592-3.549-.592S267-37.882,267-37.408Z" transform="translate(-141.111 -75.825)" fill="#000000"/>
    <path id="Path_39" data-name="Path 39" d="M304.276-37.724A18.721,18.721,0,0,0,304-33.386c0,3.786.039,4.062.789,4.062s.789-.276.789-4.338c0-3.352-.118-4.338-.513-4.338A1.113,1.113,0,0,0,304.276-37.724Z" transform="translate(-163.52 -75.825)" fill="#000000"/>
    <path id="Path_40" data-name="Path 40" d="M329.854-37.544c-1.025.592-1.854,2.485-1.854,4.3a3.782,3.782,0,0,0,4.141,3.944c2.248,0,3.155-.473,3.944-1.972,1.1-2.13.434-5.363-1.341-6.31A7.681,7.681,0,0,0,329.854-37.544Zm4.772,1.775a3.331,3.331,0,0,1,.434,3.825c-.631,1.183-1.1,1.459-2.8,1.459-3.431,0-4.3-5.009-1.065-6.271C332.456-37.268,333.521-36.952,334.625-35.769Z" transform="translate(-178.055 -75.847)" fill="#000000"/>
    <path id="Path_41" data-name="Path 41" d="M370.425-33.949c-.237,4.18-.158,4.732.749,4.732.434,0,.592-.749.67-3.037l.118-3.037,2.366,3a13.747,13.747,0,0,0,2.879,3.076c.355,0,.473-1.144.473-4.378,0-3.313-.118-4.338-.473-4.22-.316.118-.592,1.262-.71,3.116l-.2,2.918L373.935-34.7a20.723,20.723,0,0,0-2.8-3.076C370.859-37.853,370.622-36.552,370.425-33.949Z" transform="translate(-203.679 -75.932)" fill="#000000"/>
    <path id="Path_42" data-name="Path 42" d="M182.506-159.927l-.115,3.273-3.064,2.721c-4.9,4.338-7.047,6.271-9.269,8.242l-2.03,1.893h-3.064a8.115,8.115,0,0,1-3.064-.315c0-.315,17.159-16.169,19.84-18.378l.881-.71Z" transform="translate(-98.953)" fill="#445dcb"/>
  </g>
</svg>
